<svg width="82" height="28" viewBox="0 0 82 28" fill="none" xmlns="http://www.w3.org/2000/svg">
<rect x="0.365601" width="28" height="28" rx="8" fill="#007FFF"/>
<path d="M7.3656 14L12.0268 18.5L21.3656 9.5" stroke="white" stroke-width="2.5" stroke-linecap="round" stroke-linejoin="round"/>
<path d="M48.3556 7.37V9.45H43.8956V21.37H41.8156V9.45H37.3656V7.37H48.3556Z" fill="white"/>
<path d="M56.6198 11.37H58.6998V21.37H56.6098L56.5298 19.92C56.2365 20.4333 55.8398 20.8467 55.3398 21.16C54.8398 21.4733 54.2498 21.63 53.5698 21.63C52.8365 21.63 52.1465 21.4933 51.4998 21.22C50.8532 20.94 50.2832 20.5533 49.7898 20.06C49.3032 19.5667 48.9232 19 48.6498 18.36C48.3765 17.7133 48.2398 17.02 48.2398 16.28C48.2398 15.5667 48.3732 14.8967 48.6398 14.27C48.9065 13.6367 49.2765 13.0833 49.7498 12.61C50.2232 12.1367 50.7698 11.7667 51.3898 11.5C52.0165 11.2267 52.6865 11.09 53.3998 11.09C54.1265 11.09 54.7665 11.2567 55.3198 11.59C55.8798 11.9167 56.3432 12.3367 56.7098 12.85L56.6198 11.37ZM53.5198 19.62C54.1065 19.62 54.6198 19.4767 55.0598 19.19C55.4998 18.8967 55.8398 18.5033 56.0798 18.01C56.3265 17.5167 56.4498 16.97 56.4498 16.37C56.4498 15.7633 56.3265 15.2133 56.0798 14.72C55.8332 14.2267 55.4898 13.8367 55.0498 13.55C54.6165 13.2567 54.1065 13.11 53.5198 13.11C52.9398 13.11 52.4098 13.2567 51.9298 13.55C51.4498 13.8433 51.0698 14.2367 50.7898 14.73C50.5098 15.2233 50.3698 15.77 50.3698 16.37C50.3698 16.9767 50.5132 17.5267 50.7998 18.02C51.0932 18.5067 51.4765 18.8967 51.9498 19.19C52.4298 19.4767 52.9532 19.62 53.5198 19.62Z" fill="white"/>
<path d="M63.6953 21.56C63.1686 21.5267 62.6553 21.42 62.1553 21.24C61.6553 21.06 61.2153 20.8167 60.8353 20.51C60.462 20.1967 60.182 19.83 59.9953 19.41L61.7653 18.65C61.852 18.83 62.002 19.0067 62.2153 19.18C62.4353 19.3533 62.692 19.4967 62.9853 19.61C63.2786 19.7167 63.5853 19.77 63.9053 19.77C64.2186 19.77 64.5086 19.7267 64.7753 19.64C65.0486 19.5467 65.272 19.4067 65.4453 19.22C65.6186 19.0333 65.7053 18.81 65.7053 18.55C65.7053 18.2567 65.6053 18.03 65.4053 17.87C65.212 17.7033 64.9686 17.5767 64.6753 17.49C64.382 17.4033 64.0886 17.32 63.7953 17.24C63.142 17.0933 62.542 16.8933 61.9953 16.64C61.4553 16.38 61.0253 16.05 60.7053 15.65C60.3853 15.2433 60.2253 14.7467 60.2253 14.16C60.2253 13.52 60.3986 12.9667 60.7453 12.5C61.092 12.0267 61.5453 11.6633 62.1053 11.41C62.672 11.1567 63.2753 11.03 63.9153 11.03C64.7153 11.03 65.4486 11.2 66.1153 11.54C66.782 11.88 67.292 12.3467 67.6453 12.94L65.9953 13.92C65.8953 13.72 65.7453 13.54 65.5453 13.38C65.3453 13.22 65.1186 13.0933 64.8653 13C64.612 12.9 64.3486 12.8433 64.0753 12.83C63.7353 12.8167 63.4186 12.8567 63.1253 12.95C62.8386 13.0367 62.6086 13.1767 62.4353 13.37C62.262 13.5633 62.1753 13.81 62.1753 14.11C62.1753 14.4033 62.2786 14.6233 62.4853 14.77C62.692 14.91 62.952 15.0233 63.2653 15.11C63.5853 15.1967 63.912 15.2933 64.2453 15.4C64.8386 15.5867 65.3953 15.8167 65.9153 16.09C66.4353 16.3567 66.8553 16.6867 67.1753 17.08C67.4953 17.4733 67.6486 17.9533 67.6353 18.52C67.6353 19.1467 67.4453 19.6967 67.0653 20.17C66.692 20.6433 66.2053 21.0033 65.6053 21.25C65.0053 21.4967 64.3686 21.6 63.6953 21.56Z" fill="white"/>
<path d="M77.8976 21.37H75.4976L73.0376 17.13L71.4276 19.05V21.37H69.3476V6.37H71.4276V15.82L75.1476 11.37H77.8676L74.4576 15.44L77.8976 21.37Z" fill="white"/>
<path d="M79.4844 11.37H81.5644V21.37H79.4844V11.37ZM80.5443 9.92C80.2243 9.92 79.9577 9.81666 79.7444 9.61C79.531 9.40333 79.4244 9.14333 79.4244 8.83C79.4244 8.52333 79.531 8.26666 79.7444 8.06C79.9577 7.84666 80.221 7.74 80.5344 7.74C80.841 7.74 81.101 7.84666 81.3144 8.06C81.5277 8.26666 81.6343 8.52333 81.6343 8.83C81.6343 9.14333 81.5277 9.40333 81.3144 9.61C81.1077 9.81666 80.851 9.92 80.5443 9.92Z" fill="white"/>
</svg>
